<svg id="visual" viewBox="0 0 950 300" width="950" height="300" xmlns="http://www.w3.org/2000/svg" xmlns:xlink="http://www.w3.org/1999/xlink" version="1.1"><rect x="0" y="0" width="950" height="300" fill="#2e2e2e"></rect><path d="M0 201L14.3 205.5C28.7 210 57.3 219 86.2 220.8C115 222.7 144 217.3 172.8 216.8C201.7 216.3 230.3 220.7 259 221.7C287.7 222.7 316.3 220.3 345.2 217.2C374 214 403 210 431.8 211.3C460.7 212.7 489.3 219.3 518.2 217.8C547 216.3 576 206.7 604.8 204.3C633.7 202 662.3 207 691 208.7C719.7 210.3 748.3 208.7 777.2 210C806 211.3 835 215.7 863.8 217.5C892.7 219.3 921.3 218.7 935.7 218.3L950 218L950 301L935.7 301C921.3 301 892.7 301 863.8 301C835 301 806 301 777.2 301C748.3 301 719.7 301 691 301C662.3 301 633.7 301 604.8 301C576 301 547 301 518.2 301C489.3 301 460.7 301 431.8 301C403 301 374 301 345.2 301C316.3 301 287.7 301 259 301C230.3 301 201.7 301 172.8 301C144 301 115 301 86.2 301C57.3 301 28.7 301 14.3 301L0 301Z" fill="#16ff00"></path><path d="M0 226L14.3 224.7C28.7 223.3 57.3 220.7 86.2 218.5C115 216.3 144 214.7 172.8 217.7C201.7 220.7 230.3 228.3 259 230.5C287.7 232.7 316.3 229.3 345.2 225.7C374 222 403 218 431.8 220.2C460.7 222.3 489.3 230.7 518.2 233.7C547 236.7 576 234.3 604.8 231.3C633.7 228.3 662.3 224.7 691 222C719.7 219.3 748.3 217.7 777.2 219.8C806 222 835 228 863.8 231.7C892.7 235.3 921.3 236.7 935.7 237.3L950 238L950 301L935.7 301C921.3 301 892.7 301 863.8 301C835 301 806 301 777.2 301C748.3 301 719.7 301 691 301C662.3 301 633.7 301 604.8 301C576 301 547 301 518.2 301C489.3 301 460.7 301 431.8 301C403 301 374 301 345.2 301C316.3 301 287.7 301 259 301C230.3 301 201.7 301 172.8 301C144 301 115 301 86.2 301C57.3 301 28.7 301 14.3 301L0 301Z" fill="#42a230"></path><path d="M0 245L14.3 243.8C28.7 242.7 57.3 240.3 86.2 240.7C115 241 144 244 172.8 243.3C201.7 242.7 230.3 238.3 259 235C287.7 231.7 316.3 229.3 345.2 230.3C374 231.3 403 235.7 431.8 235.3C460.7 235 489.3 230 518.2 231C547 232 576 239 604.8 242.7C633.7 246.3 662.3 246.7 691 244.2C719.7 241.7 748.3 236.3 777.2 236C806 235.7 835 240.3 863.8 240.3C892.7 240.3 921.3 235.7 935.7 233.3L950 231L950 301L935.7 301C921.3 301 892.7 301 863.8 301C835 301 806 301 777.2 301C748.3 301 719.7 301 691 301C662.3 301 633.7 301 604.8 301C576 301 547 301 518.2 301C489.3 301 460.7 301 431.8 301C403 301 374 301 345.2 301C316.3 301 287.7 301 259 301C230.3 301 201.7 301 172.8 301C144 301 115 301 86.2 301C57.3 301 28.7 301 14.3 301L0 301Z" fill="#384d32"></path><path d="M0 258L14.3 257.8C28.7 257.7 57.3 257.3 86.2 255.7C115 254 144 251 172.8 248.8C201.7 246.7 230.3 245.3 259 247.2C287.7 249 316.3 254 345.2 256.2C374 258.3 403 257.7 431.8 255.2C460.7 252.7 489.3 248.3 518.2 246.7C547 245 576 246 604.8 247.2C633.7 248.3 662.3 249.7 691 250.7C719.7 251.7 748.3 252.3 777.2 249.8C806 247.3 835 241.7 863.8 240.5C892.7 239.3 921.3 242.7 935.7 244.3L950 246L950 301L935.7 301C921.3 301 892.7 301 863.8 301C835 301 806 301 777.2 301C748.3 301 719.7 301 691 301C662.3 301 633.7 301 604.8 301C576 301 547 301 518.2 301C489.3 301 460.7 301 431.8 301C403 301 374 301 345.2 301C316.3 301 287.7 301 259 301C230.3 301 201.7 301 172.8 301C144 301 115 301 86.2 301C57.3 301 28.7 301 14.3 301L0 301Z" fill="#2e2e2e"></path><path d="M0 262L14.3 260.3C28.7 258.7 57.3 255.3 86.2 254.7C115 254 144 256 172.8 256.7C201.7 257.3 230.3 256.7 259 257.7C287.7 258.7 316.3 261.3 345.2 262.7C374 264 403 264 431.8 265C460.7 266 489.3 268 518.2 267C547 266 576 262 604.8 259.8C633.7 257.7 662.3 257.3 691 256.7C719.7 256 748.3 255 777.2 254.2C806 253.3 835 252.7 863.8 252.3C892.7 252 921.3 252 935.7 252L950 252L950 301L935.7 301C921.3 301 892.7 301 863.8 301C835 301 806 301 777.2 301C748.3 301 719.7 301 691 301C662.3 301 633.7 301 604.8 301C576 301 547 301 518.2 301C489.3 301 460.7 301 431.8 301C403 301 374 301 345.2 301C316.3 301 287.7 301 259 301C230.3 301 201.7 301 172.8 301C144 301 115 301 86.2 301C57.3 301 28.7 301 14.3 301L0 301Z" fill="#384d32"></path><path d="M0 271L14.3 271.3C28.7 271.7 57.3 272.3 86.2 272.8C115 273.3 144 273.7 172.8 273.8C201.7 274 230.3 274 259 272.5C287.7 271 316.3 268 345.2 267.7C374 267.3 403 269.7 431.8 269.7C460.7 269.7 489.3 267.3 518.2 267.5C547 267.7 576 270.3 604.8 272C633.7 273.7 662.3 274.3 691 275C719.7 275.7 748.3 276.3 777.2 275.7C806 275 835 273 863.8 273.5C892.7 274 921.3 277 935.7 278.5L950 280L950 301L935.7 301C921.3 301 892.7 301 863.8 301C835 301 806 301 777.2 301C748.3 301 719.7 301 691 301C662.3 301 633.7 301 604.8 301C576 301 547 301 518.2 301C489.3 301 460.7 301 431.8 301C403 301 374 301 345.2 301C316.3 301 287.7 301 259 301C230.3 301 201.7 301 172.8 301C144 301 115 301 86.2 301C57.3 301 28.7 301 14.3 301L0 301Z" fill="#42a230"></path><path d="M0 290L14.3 289.7C28.7 289.3 57.3 288.7 86.2 288.7C115 288.7 144 289.3 172.8 288.8C201.7 288.3 230.3 286.7 259 286.3C287.7 286 316.3 287 345.2 286.8C374 286.7 403 285.3 431.8 285.2C460.7 285 489.3 286 518.2 286.5C547 287 576 287 604.8 287.3C633.7 287.7 662.3 288.3 691 288.2C719.7 288 748.3 287 777.2 287.3C806 287.7 835 289.3 863.8 290.2C892.7 291 921.3 291 935.7 291L950 291L950 301L935.7 301C921.3 301 892.7 301 863.8 301C835 301 806 301 777.2 301C748.3 301 719.7 301 691 301C662.3 301 633.7 301 604.8 301C576 301 547 301 518.2 301C489.3 301 460.7 301 431.8 301C403 301 374 301 345.2 301C316.3 301 287.7 301 259 301C230.3 301 201.7 301 172.8 301C144 301 115 301 86.2 301C57.3 301 28.7 301 14.3 301L0 301Z" fill="#16ff00"></path></svg>