<svg id="visual" viewBox="0 0 960 300" width="960" height="300" xmlns="http://www.w3.org/2000/svg" xmlns:xlink="http://www.w3.org/1999/xlink" version="1.1"><rect x="0" y="0" width="960" height="300" fill="#2e2e2e"></rect><path d="M0 183L26.7 176.3C53.3 169.7 106.7 156.3 160 149.7C213.3 143 266.7 143 320 149.5C373.3 156 426.7 169 480 172.3C533.3 175.7 586.7 169.3 640 162.2C693.3 155 746.7 147 800 150.7C853.3 154.3 906.7 169.7 933.3 177.3L960 185L960 0L933.3 0C906.7 0 853.3 0 800 0C746.7 0 693.3 0 640 0C586.7 0 533.3 0 480 0C426.7 0 373.3 0 320 0C266.7 0 213.3 0 160 0C106.7 0 53.3 0 26.7 0L0 0Z" fill="#2ecc71"></path><path d="M0 125L26.7 126.5C53.3 128 106.7 131 160 136C213.3 141 266.7 148 320 148.5C373.3 149 426.7 143 480 141C533.3 139 586.7 141 640 140.2C693.3 139.3 746.7 135.7 800 138.7C853.3 141.7 906.7 151.3 933.3 156.2L960 161L960 0L933.3 0C906.7 0 853.3 0 800 0C746.7 0 693.3 0 640 0C586.7 0 533.3 0 480 0C426.7 0 373.3 0 320 0C266.7 0 213.3 0 160 0C106.7 0 53.3 0 26.7 0L0 0Z" fill="#1ed767"></path><path d="M0 89L26.7 94.3C53.3 99.7 106.7 110.3 160 113C213.3 115.7 266.7 110.3 320 112.5C373.3 114.7 426.7 124.3 480 122.3C533.3 120.3 586.7 106.7 640 101.7C693.3 96.7 746.7 100.3 800 103.7C853.3 107 906.7 110 933.3 111.5L960 113L960 0L933.3 0C906.7 0 853.3 0 800 0C746.7 0 693.3 0 640 0C586.7 0 533.3 0 480 0C426.7 0 373.3 0 320 0C266.7 0 213.3 0 160 0C106.7 0 53.3 0 26.7 0L0 0Z" fill="#0be15b"></path><path d="M0 80L26.7 78.2C53.3 76.3 106.7 72.7 160 74.8C213.3 77 266.7 85 320 85.7C373.3 86.3 426.7 79.7 480 75.7C533.3 71.7 586.7 70.3 640 74.2C693.3 78 746.7 87 800 91.3C853.3 95.7 906.7 95.3 933.3 95.2L960 95L960 0L933.3 0C906.7 0 853.3 0 800 0C746.7 0 693.3 0 640 0C586.7 0 533.3 0 480 0C426.7 0 373.3 0 320 0C266.7 0 213.3 0 160 0C106.7 0 53.3 0 26.7 0L0 0Z" fill="#00eb4c"></path><path d="M0 68L26.7 67.5C53.3 67 106.7 66 160 62.7C213.3 59.3 266.7 53.7 320 53.7C373.3 53.7 426.7 59.3 480 61.3C533.3 63.3 586.7 61.7 640 61.3C693.3 61 746.7 62 800 59.5C853.3 57 906.7 51 933.3 48L960 45L960 0L933.3 0C906.7 0 853.3 0 800 0C746.7 0 693.3 0 640 0C586.7 0 533.3 0 480 0C426.7 0 373.3 0 320 0C266.7 0 213.3 0 160 0C106.7 0 53.3 0 26.7 0L0 0Z" fill="#00f535"></path><path d="M0 34L26.7 34.5C53.3 35 106.7 36 160 34.2C213.3 32.3 266.7 27.7 320 28.7C373.3 29.7 426.7 36.3 480 39.8C533.3 43.3 586.7 43.7 640 41.7C693.3 39.7 746.7 35.3 800 32C853.3 28.7 906.7 26.3 933.3 25.2L960 24L960 0L933.3 0C906.7 0 853.3 0 800 0C746.7 0 693.3 0 640 0C586.7 0 533.3 0 480 0C426.7 0 373.3 0 320 0C266.7 0 213.3 0 160 0C106.7 0 53.3 0 26.7 0L0 0Z" fill="#16ff00"></path></svg>